Exact Audio Copy V0.99 prebeta 1 from 25. May 2007

EAC 抓取日志文件从20. 十月 2009, 2:13

未知艺术家 / 未知标题

使用驱动器  ：PIONEER DVD-RW  DVR-115   Adapter: 0  ID: 0

读取模式     : 保护
使用精确流   : 是
废除音频缓冲 : 是
使用 C2 指针 : 否

读取偏移校正                   : 0
读取 Lead-In 和 Lead-Out       : 否
用静音填充抓取中丢失偏移的采样 : 是
去除首尾静音块                 : 否
已用接口                       : Win NT 及 2000 本地 Win32 接口

所用输出格式 : 内部 WAV 函数
样本格式     : 44.100 Hz;16 Bit;立体声
使用压缩偏移 : 0


被抓轨 CD 的 TOC

     音轨 |   开始   |   长度   | 起始扇区 | 结尾扇区 
    --------------------------------------------------
       1  |  0:00.01 |  4:07.30 |       1  |   18555  
       2  |  4:07.31 |  4:05.69 |   18556  |   36999  
       3  |  8:13.25 |  4:10.72 |   37000  |   55821  
       4  | 12:24.22 |  3:39.72 |   55822  |   72318  
       5  | 16:04.19 |  5:24.08 |   72319  |   96626  
       6  | 21:28.27 |  3:47.47 |   96627  |  113698  
       7  | 25:15.74 |  3:25.40 |  113699  |  129113  
       8  | 28:41.39 |  4:05.22 |  129114  |  147510  
       9  | 32:46.61 |  3:54.69 |  147511  |  165129  
      10  | 36:41.55 |  4:20.52 |  165130  |  184681  
      11  | 41:02.32 |  3:21.25 |  184682  |  199781  
      12  | 44:23.57 |  4:54.69 |  199782  |  221900  
      13  | 49:18.51 |  3:49.46 |  221901  |  239121  
      14  | 53:08.22 |  3:11.56 |  239122  |  253502  
      15  | 56:20.03 |  5:02.15 |  253503  |  276167  


范围状态及错误

已选择范围

     文件名 E:\文件夹\20世纪中华歌坛名人百集珍藏版 《那英》DSD 原抓WAV\未知艺术家 - 未知标题.wav

     峰值电平 100.0 %
     范围质量 100.0 %
     复制 CRC 92C4FC3F
     复制成功

没有错误发生

状态报告结尾
